HIERARCHY
ROOT Hips
{
	OFFSET 0.00000 0.00000 0.00000
	CHANNELS 6 Xposition Yposition Zposition Zrotation Yrotation Xrotation 
	JOINT LHipJoint
	{
		OFFSET 0 0 0
		CHANNELS 3 Zrotation Yrotation Xrotation
		JOINT LeftHip
		{
			OFFSET 1.28858 -1.83292 1.03970
			CHANNELS 3 Zrotation Yrotation Xrotation
			JOINT LeftKnee
			{
				OFFSET 2.47846 -6.80952 0.00000
				CHANNELS 3 Zrotation Yrotation Xrotation
				JOINT LeftAnkle
				{
					OFFSET 2.75274 -7.56311 0.00000
					CHANNELS 3 Zrotation Yrotation Xrotation
					JOINT LeftToe
					{
						OFFSET 0.12848 -0.35301 1.68223
						CHANNELS 3 Zrotation Yrotation Xrotation
						End Site
						{
							OFFSET 0.00000 -0.00000 0.87311
						}
					}
				}
			}
		}
	}
	JOINT RHipJoint
	{
		OFFSET 0 0 0
		CHANNELS 3 Zrotation Yrotation Xrotation
		JOINT RightHip
		{
			OFFSET -1.31183 -1.83292 1.03970
			CHANNELS 3 Zrotation Yrotation Xrotation
			JOINT RightKnee
			{
				OFFSET -2.44740 -6.72417 0.00000
				CHANNELS 3 Zrotation Yrotation Xrotation
				JOINT RightAnkle
				{
					OFFSET -2.67343 -7.34519 0.00000
					CHANNELS 3 Zrotation Yrotation Xrotation
					JOINT RightToe
					{
						OFFSET -0.16914 -0.46471 1.77626
						CHANNELS 3 Zrotation Yrotation Xrotation
						End Site
						{
							OFFSET -0.00000 -0.00000 0.92777
						}
					}
				}
			}
		}
	}
	JOINT lowerback
	{
		OFFSET 0 0 0
		CHANNELS 3 Zrotation Yrotation Xrotation
		JOINT Chest
		{
			OFFSET 0.01249 2.14252 0.03842
			CHANNELS 3 Zrotation Yrotation Xrotation
			JOINT Chest2
			{
				OFFSET -0.02957 2.14199 -0.03751
				CHANNELS 3 Zrotation Yrotation Xrotation
				JOINT lowerneck
				{
					OFFSET 0 0 0
					CHANNELS 3 Zrotation Yrotation Xrotation
					JOINT Neck
					{
						OFFSET -0.01678 1.65709 -0.05476
						CHANNELS 3 Zrotation Yrotation Xrotation
						JOINT Head
						{
							OFFSET 0.07912 1.58331 -0.11843
							CHANNELS 3 Zrotation Yrotation Xrotation
							End Site
							{
								OFFSET 0.03298 1.73940 -0.04271
							}
						}
					}
				}
				JOINT LeftCollar
				{
					OFFSET 0 0 0
					CHANNELS 3 Zrotation Yrotation Xrotation
					JOINT LeftShoulder
					{
						OFFSET 3.39556 1.16496 0.08673
CHANNELS 3 Zrotation Xrotation Yrotation
						JOINT LeftElbow
						{
OFFSET 0 -5.239100 -0.000000
CHANNELS 3 Zrotation Xrotation Yrotation
							JOINT LeftWrist
							{
OFFSET 0 -3.314670 0.000000
CHANNELS 3 Zrotation Xrotation Yrotation
								JOINT lhand
								{
									OFFSET 0 0 0
CHANNELS 3 Zrotation Xrotation Yrotation
									JOINT LFingers
									{
OFFSET 0 -0.965900 0.000000
CHANNELS 3 Zrotation Xrotation Yrotation
										End Site
										{
OFFSET 0 -0.778730 0.000000
										}
									}
								}
								JOINT LThumb
								{
OFFSET 0 0.000000 0.000000
CHANNELS 3 Zrotation Xrotation Yrotation
									End Site
									{
OFFSET 0 -0.790620 0.790620
									}
								}
							}
						}
					}
				}
				JOINT RightCollar
				{
					OFFSET 0 0 0
					CHANNELS 3 Zrotation Yrotation Xrotation
					JOINT RightShoulder
					{
						OFFSET -3.27193 1.31331 0.33940
CHANNELS 3 Zrotation Xrotation Yrotation
						JOINT RightElbow
						{
OFFSET 0 -5.302520 0.000000
CHANNELS 3 Zrotation Xrotation Yrotation
							JOINT RightWrist
							{
OFFSET 0 -3.678750 0.000000
CHANNELS 3 Zrotation Xrotation Yrotation
								JOINT rhand
								{
									OFFSET 0 0 0
CHANNELS 3 Zrotation Xrotation Yrotation
									JOINT RFingers
									{
OFFSET 0 -0.594810 0.000000
CHANNELS 3 Zrotation Xrotation Yrotation
										End Site
										{
OFFSET 0 -0.479550 0.000000
										}
									}
								}
								JOINT RThumb
								{
OFFSET 0 0.000000 0.000000
CHANNELS 3 Zrotation Xrotation Yrotation
									End Site
									{
OFFSET 0 -0.486870 0.486870
									}
								}
							}
						}
					}
				}
			}
		}
	}
}
MOTION
Frames: 4
Frame Time: 0.008333333333333333
12.683000 20.570900 9.725700 2.223700 1.385500 3.748300 0.000000 0.000000 0.000000 -14.529900 -7.989200 -16.401100 3.792700 11.879300 35.306500 0.964800 -26.808700 -24.437800 0.010100 -0.649500 -1.785000 0.000000 0.000000 0.000000 16.392800 15.878500 -3.677300 -1.866900 -8.583200 24.500100 -4.720300 -3.612400 -42.484200 -0.327800 -3.679600 10.176900 0.199700 0.062100 -7.900900 -1.487400 0.142100 0.825000 -1.642900 0.098500 5.299300 -6.111500 -8.054100 1.281800 7.014400 -11.178700 6.803900 3.084200 -5.577300 2.814700 -0.000000 0.000000 0.000000 9.201000 -0.484300 -29.646200 13.961000 -22.679000 2.813100 3.534000 -8.014100 14.306100 0.000000 0.000000 0.000000 -7.125000 0.000000 0.000000 -16.212900 15.999500 -11.595400 -0.000000 0.000000 0.000000 -2.453600 8.281000 11.847600 -12.911500 -21.157300 -2.421200 -8.684100 -1.571000 35.795500 0.000000 0.000000 0.000000 7.125000 0.000000 -0.000000 30.758500 63.484700 -14.474200
12.683008 20.563068 9.737167 2.694078 1.498127 3.546659 0.000000 0.000000 0.000000 -15.100139 -8.018310 -15.977374 3.745389 11.813688 35.075989 0.966322 -26.738230 -24.407932 0.006494 -0.516010 -1.417959 0.000000 0.000000 0.000000 16.037637 16.198534 -3.334879 -1.905652 -8.666782 24.758465 -4.831982 -3.512074 -42.936042 -0.375540 -3.935574 10.895444 -0.418229 0.032726 -7.634852 -1.739706 0.170402 0.727726 -1.552812 0.097480 5.047140 -5.571290 -8.079060 1.083473 6.494665 -11.187301 7.099580 2.799058 -5.572683 2.873286 0.000000 0.000000 0.000000 9.339243 -0.541645 -29.490334 13.898252 -22.589012 2.788929 3.624359 -7.769666 15.111536 0.000000 0.000000 0.000000 -7.125000 0.000000 0.000000 -16.099397 15.221167 -11.789506 0.000000 0.000000 0.000000 -2.258244 8.564843 12.273492 -13.013927 -21.307535 -2.458347 -8.304496 -0.008367 35.976156 0.000000 0.000000 0.000000 7.125000 0.000000 0.000000 31.361976 63.535376 -14.824034
12.689476 20.558299 9.756463 2.733482 1.644571 3.470815 0.000000 0.000000 0.000000 -15.211658 -8.139077 -15.758791 3.736826 11.801708 35.033979 0.977747 -26.562697 -24.374207 0.006077 -0.412068 -1.132322 0.000000 0.000000 0.000000 16.014526 16.053497 -3.172480 -1.905321 -8.666083 24.756175 -4.875243 -3.391733 -43.081788 -0.390526 -4.012621 11.112126 -0.567228 -0.012801 -7.636898 -1.776356 0.124054 0.654098 -1.512199 0.070724 4.969934 -5.501852 -7.994235 0.982211 6.352493 -11.066575 7.226650 2.737881 -5.511322 2.910760 0.000000 0.000000 0.000000 9.396922 -0.554839 -29.787146 13.953068 -22.667506 2.810013 4.043768 -8.313418 15.393507 0.000000 0.000000 0.000000 -7.125000 0.000000 0.000000 -15.806221 14.930894 -11.659353 0.000000 0.000000 0.000000 -2.143806 8.830111 12.427255 -13.170155 -21.536031 -2.515426 -7.842432 1.959753 36.215588 0.000000 0.000000 0.000000 7.125000 0.000000 0.000000 32.121596 63.611547 -15.277920
12.693360 20.553681 9.776164 2.574803 1.796160 3.409574 0.000000 0.000000 0.000000 -15.087714 -8.309766 -15.565000 3.735819 11.800237 35.028984 0.926877 -26.561179 -24.100684 0.001466 0.167210 0.459360 0.000000 0.000000 0.000000 16.251543 16.057130 -2.941069 -1.899369 -8.653306 24.716651 -4.936157 -3.401322 -43.347432 -0.402010 -4.070700 11.275663 -0.518632 -0.035810 -7.765047 -1.751851 0.089920 0.663984 -1.518760 0.054993 5.051886 -5.526675 -7.939361 0.863112 6.345256 -10.987237 7.219159 2.738267 -5.470673 2.925708 0.000000 0.000000 0.000000 9.375850 -0.689115 -29.949484 14.027036 -22.773344 2.838580 4.413220 -8.598628 15.643065 0.000000 0.000000 0.000000 -7.125000 0.000000 0.000000 -15.549129 14.672803 -11.543751 0.000000 0.000000 0.000000 -1.973237 8.951910 12.433407 -13.244694 -21.644639 -2.542803 -7.337444 4.028435 36.491296 0.000000 0.000000 0.000000 7.125000 0.000000 0.000000 32.971624 63.704035 -15.797585
